<svg width="auto" height="35" viewBox="0 0 3129 620" fill="none" xmlns="http://www.w3.org/2000/svg">
<path d="M3008.72 492.97C3029.3 492.97 3044.33 486.6 3053.8 473.86C3063.6 461.12 3068.5 444.133 3068.5 422.9V354.3C3068.5 333.067 3063.6 316.08 3053.8 303.34C3044.33 290.6 3029.3 284.23 3008.72 284.23C2988.14 284.23 2972.95 290.6 2963.15 303.34C2953.68 316.08 2948.94 333.067 2948.94 354.3V422.9C2948.94 444.133 2953.68 461.12 2963.15 473.86C2972.95 486.6 2988.14 492.97 3008.72 492.97ZM3008.72 521.88C2990.76 521.88 2974.42 518.777 2959.72 512.57C2945.02 506.363 2932.45 497.543 2921.99 486.11C2911.54 474.677 2903.37 460.793 2897.49 444.46C2891.94 427.8 2889.16 409.18 2889.16 388.6C2889.16 368.02 2891.94 349.563 2897.49 333.23C2903.37 316.57 2911.54 302.523 2921.99 291.09C2932.45 279.657 2945.02 270.837 2959.72 264.63C2974.42 258.423 2990.76 255.32 3008.72 255.32C3026.69 255.32 3043.02 258.423 3057.72 264.63C3072.42 270.837 3085 279.657 3095.45 291.09C3105.91 302.523 3113.91 316.57 3119.46 333.23C3125.34 349.563 3128.28 368.02 3128.28 388.6C3128.28 409.18 3125.34 427.8 3119.46 444.46C3113.91 460.793 3105.91 474.677 3095.45 486.11C3085 497.543 3072.42 506.363 3057.72 512.57C3043.02 518.777 3026.69 521.88 3008.72 521.88Z" fill="currentColor"/>
<path d="M2668.24 489.54H2701.56V300.4L2668.24 294.03V272.47L2754.97 255.32V300.89H2757.42C2759.7 295.01 2762.48 289.457 2765.75 284.23C2769.34 278.677 2773.59 273.777 2778.49 269.53C2783.71 265.283 2789.59 261.853 2796.13 259.24C2802.99 256.627 2810.66 255.32 2819.16 255.32C2834.18 255.32 2846.11 259.077 2854.93 266.59C2864.07 274.103 2868.65 284.883 2868.65 298.93C2868.65 310.037 2865.71 318.857 2859.83 325.39C2854.27 331.597 2846.6 334.7 2836.8 334.7C2826.67 334.7 2818.67 332.087 2812.79 326.86C2807.23 321.307 2804.46 314.447 2804.46 306.28C2804.46 300.727 2805.6 296.153 2807.89 292.56C2810.17 288.64 2812.95 286.353 2816.22 285.7V284.23C2815.24 283.903 2814.09 283.74 2812.79 283.74C2811.48 283.413 2809.52 283.25 2806.91 283.25C2800.7 283.25 2794.49 284.883 2788.29 288.15C2782.41 291.417 2777.02 295.663 2772.12 300.89C2767.54 305.79 2763.79 311.507 2760.85 318.04C2757.91 324.247 2756.44 330.453 2756.44 336.66V489.54H2799.56V516H2668.24V489.54Z" fill="currentColor"/>
<path d="M2574.98 519.92C2556.36 519.92 2543.29 516 2535.78 508.16C2528.26 500.32 2524.51 487.907 2524.51 470.92V289.62H2491.19V261.2H2499.52C2511.6 261.2 2519.93 259.077 2524.51 254.83C2529.08 250.583 2532.84 244.377 2535.78 236.21L2550.97 193.09H2579.39V261.2H2640.64V289.62H2579.39V488.07H2640.64V509.63C2635.08 512.243 2626.1 514.53 2613.69 516.49C2601.6 518.777 2588.7 519.92 2574.98 519.92Z" fill="currentColor"/>
<path d="M2366.12 521.88C2349.46 521.88 2335.91 518.613 2325.45 512.08C2315 505.547 2308.14 498.36 2304.87 490.52H2302.91V516H2265.67V440.05H2302.91V448.87C2302.91 462.59 2307.16 473.37 2315.65 481.21C2324.15 489.05 2337.87 492.97 2356.81 492.97C2392.09 492.97 2409.73 480.557 2409.73 455.73C2409.73 436.457 2396.99 423.717 2371.51 417.51L2345.05 411.14C2318.92 404.933 2299.48 395.46 2286.74 382.72C2274 369.98 2267.63 352.503 2267.63 330.29C2267.63 306.443 2275.64 287.987 2291.64 274.92C2307.65 261.853 2328.88 255.32 2355.34 255.32C2371.68 255.32 2384.74 258.097 2394.54 263.65C2404.34 269.203 2410.71 275.9 2413.65 283.74H2415.61V261.2H2452.85V337.15H2415.61V322.94C2415.61 297.133 2398.14 284.23 2363.18 284.23C2348.16 284.23 2336.56 287.17 2328.39 293.05C2320.55 298.603 2316.63 307.097 2316.63 318.53C2316.63 338.783 2329.7 352.177 2355.83 358.71L2380.82 364.59C2407.28 370.47 2427.05 379.453 2440.11 391.54C2453.18 403.3 2459.71 420.777 2459.71 443.97C2459.71 467.49 2451.22 486.437 2434.23 500.81C2417.57 514.857 2394.87 521.88 2366.12 521.88Z" fill="currentColor"/>
<path d="M2071.27 521.88C2045.79 521.88 2026.52 515.673 2013.45 503.26C2000.71 490.52 1994.34 473.207 1994.34 451.32C1994.34 426.493 2003.16 407.71 2020.8 394.97C2038.44 382.23 2067.19 375.86 2107.04 375.86H2142.32V342.54C2142.32 322.613 2137.91 307.423 2129.09 296.97C2120.27 286.517 2106.39 281.29 2087.44 281.29C2071.43 281.29 2059.35 283.577 2051.18 288.15V290.11C2054.77 291.743 2058.04 294.683 2060.98 298.93C2064.25 302.85 2065.88 308.403 2065.88 315.59C2065.88 324.737 2063.11 332.087 2057.55 337.64C2052.33 343.193 2044.65 345.97 2034.52 345.97C2026.03 345.97 2018.84 343.193 2012.96 337.64C2007.41 331.76 2004.63 323.92 2004.63 314.12C2004.63 306.607 2006.76 299.42 2011 292.56C2015.58 285.373 2022.11 279.003 2030.6 273.45C2039.1 267.897 2049.39 263.487 2061.47 260.22C2073.89 256.953 2088.1 255.32 2104.1 255.32C2134.81 255.32 2158 262.507 2173.68 276.88C2189.36 291.253 2197.2 311.343 2197.2 337.15V490.03H2230.52V512.08C2225.95 514.693 2220.07 516.98 2212.88 518.94C2205.7 520.9 2198.02 521.88 2189.85 521.88C2174.83 521.88 2163.72 518.123 2156.53 510.61C2149.67 502.77 2146.24 492.807 2146.24 480.72V478.27H2143.79C2141.51 483.823 2138.57 489.213 2134.97 494.44C2131.38 499.34 2126.64 503.913 2120.76 508.16C2115.21 512.407 2108.35 515.673 2100.18 517.96C2092.01 520.573 2082.38 521.88 2071.27 521.88ZM2092.83 487.58C2107.21 487.58 2118.97 484.15 2128.11 477.29C2137.59 470.43 2142.32 459.16 2142.32 443.48V399.87H2112.92C2089.73 399.87 2073.56 403.627 2064.41 411.14C2055.26 418.653 2050.69 429.433 2050.69 443.48V452.79C2050.69 464.55 2054.45 473.37 2061.96 479.25C2069.48 484.803 2079.77 487.58 2092.83 487.58Z" fill="currentColor"/>
<path d="M1557.15 64.5V32.25H1621.65V0H1816.7V32.25H1848.18V64.5H1880.43V32.25H2010.2V64.5H2041.68V161.25H2010.2V193.5H1977.95V225.75H1913.45V258H1719.18V290.25H1686.93V451.5H1719.18V483.75H1815.93V451.5H1848.18V419.25H1880.43V322.5H1783.68V354.75H1752.2V387H1783.68V419.25H1751.43V387H1719.18V354.75H1751.43V322.5H1782.9V290.25H1881.2V322.5H1912.68V451.5H1880.43V483.75H1848.18V516H1686.93V483.75H1654.68V451.5H1622.43V290.25H1654.68V258H1621.65V225.75H1557.93V194.274H1525.68V64.5H1557.15ZM1622.43 32.25V64.5H1557.93V193.5H1622.43V225.75H1686.93V193.5H1719.18V161.25H1751.43V129H1783.68V96.75H1815.93V32.25H1622.43ZM1751.43 225.75H1912.68V193.5H1977.18V161.25H2009.43V64.5H1912.68V96.75H1880.43V129H1912.68V161.25H1878.88V129H1815.93V161.25H1783.68V193.5H1751.43V225.75Z" fill="currentColor"/>
<path d="M1397.38 521.88C1371.9 521.88 1352.62 515.673 1339.56 503.26C1326.82 490.52 1320.45 473.207 1320.45 451.32C1320.45 426.493 1329.27 407.71 1346.91 394.97C1364.55 382.23 1393.29 375.86 1433.15 375.86H1468.43V342.54C1468.43 322.613 1464.02 307.423 1455.2 296.97C1446.38 286.517 1432.49 281.29 1413.55 281.29C1397.54 281.29 1385.45 283.577 1377.29 288.15V290.11C1380.88 291.743 1384.15 294.683 1387.09 298.93C1390.35 302.85 1391.99 308.403 1391.99 315.59C1391.99 324.737 1389.21 332.087 1383.66 337.64C1378.43 343.193 1370.75 345.97 1360.63 345.97C1352.13 345.97 1344.95 343.193 1339.07 337.64C1333.51 331.76 1330.74 323.92 1330.74 314.12C1330.74 306.607 1332.86 299.42 1337.11 292.56C1341.68 285.373 1348.21 279.003 1356.71 273.45C1365.2 267.897 1375.49 263.487 1387.58 260.22C1399.99 256.953 1414.2 255.32 1430.21 255.32C1460.91 255.32 1484.11 262.507 1499.79 276.88C1515.47 291.253 1523.31 311.343 1523.31 337.15V490.03H1556.63V512.08C1552.05 514.693 1546.17 516.98 1538.99 518.94C1531.8 520.9 1524.12 521.88 1515.96 521.88C1500.93 521.88 1489.82 518.123 1482.64 510.61C1475.78 502.77 1472.35 492.807 1472.35 480.72V478.27H1469.9C1467.61 483.823 1464.67 489.213 1461.08 494.44C1457.48 499.34 1452.75 503.913 1446.87 508.16C1441.31 512.407 1434.45 515.673 1426.29 517.96C1418.12 520.573 1408.48 521.88 1397.38 521.88ZM1418.94 487.58C1433.31 487.58 1445.07 484.15 1454.22 477.29C1463.69 470.43 1468.43 459.16 1468.43 443.48V399.87H1439.03C1415.83 399.87 1399.66 403.627 1390.52 411.14C1381.37 418.653 1376.8 429.433 1376.8 443.48V452.79C1376.8 464.55 1380.55 473.37 1388.07 479.25C1395.58 484.803 1405.87 487.58 1418.94 487.58Z" fill="currentColor"/>
<path d="M1010.06 489.54H1043.38V300.4L1010.06 294.03V272.47L1096.79 255.32V300.89H1099.24C1101.2 295.337 1104.14 289.783 1108.06 284.23C1112.31 278.677 1117.37 273.777 1123.25 269.53C1129.46 265.283 1136.48 261.853 1144.32 259.24C1152.49 256.627 1161.64 255.32 1171.76 255.32C1202.8 255.32 1224.85 263.323 1237.91 279.33C1250.98 295.01 1257.51 318.693 1257.51 350.38V489.54H1290.83V516H1170.29V489.54H1202.63V353.32C1202.63 332.087 1198.55 316.57 1190.38 306.77C1182.22 296.97 1169.31 292.07 1151.67 292.07C1145.14 292.07 1138.61 293.05 1132.07 295.01C1125.87 296.643 1120.15 299.42 1114.92 303.34C1110.02 306.933 1105.94 311.507 1102.67 317.06C1099.73 322.613 1098.26 329.31 1098.26 337.15V489.54H1130.6V516H1010.06V489.54Z" fill="currentColor"/>
<path d="M917.823 213.67C907.37 213.67 899.203 210.73 893.323 204.85C887.443 198.643 884.503 190.803 884.503 181.33V178.39C884.503 168.917 887.443 161.24 893.323 155.36C899.203 149.153 907.37 146.05 917.823 146.05C928.277 146.05 936.443 149.153 942.323 155.36C948.203 161.24 951.143 168.917 951.143 178.39V181.33C951.143 190.803 948.203 198.643 942.323 204.85C936.443 210.73 928.277 213.67 917.823 213.67ZM857.063 489.54H890.383V300.4L857.063 294.03V272.47L945.263 255.32V489.54H978.583V516H857.063V489.54Z" fill="currentColor"/>
<path d="M698.514 619.88C676.954 619.88 658.824 618.41 644.124 615.47C629.424 612.857 617.664 608.937 608.844 603.71C600.024 598.81 593.654 592.603 589.734 585.09C585.814 577.903 583.854 569.9 583.854 561.08C583.854 554.547 585.324 548.503 588.264 542.95C591.204 537.723 595.124 532.987 600.024 528.74C604.924 524.82 610.641 521.39 617.174 518.45C623.707 515.51 630.404 513.223 637.264 511.59V509.63C626.484 506.69 618.154 501.463 612.274 493.95C606.394 486.437 603.454 476.963 603.454 465.53C603.454 451.483 607.864 440.54 616.684 432.7C625.831 424.86 636.611 419.307 649.024 416.04V414.08C633.344 407.547 620.931 398.073 611.784 385.66C602.637 372.92 598.064 357.403 598.064 339.11C598.064 326.043 600.514 314.283 605.414 303.83C610.641 293.377 617.664 284.557 626.484 277.37C635.631 270.183 646.411 264.793 658.824 261.2C671.237 257.28 684.957 255.32 699.984 255.32C714.684 255.32 727.097 256.79 737.224 259.73C747.351 262.67 756.661 266.917 765.154 272.47C765.807 253.85 769.891 240.783 777.404 233.27C784.917 225.43 794.554 221.51 806.314 221.51C814.481 221.51 821.177 223.96 826.404 228.86C831.957 233.433 834.734 239.967 834.734 248.46C834.734 256.3 832.121 262.833 826.894 268.06C821.994 272.96 815.134 275.41 806.314 275.41C796.514 275.41 788.511 271.817 782.304 264.63H780.344V284.72C786.224 290.6 791.451 297.95 796.024 306.77C800.597 315.263 802.884 326.043 802.884 339.11C802.884 352.177 800.271 363.937 795.044 374.39C790.144 384.843 783.121 393.663 773.974 400.85C764.827 408.037 753.884 413.59 741.144 417.51C728.731 421.43 715.011 423.39 699.984 423.39C694.431 423.39 689.041 423.063 683.814 422.41C678.914 421.757 674.014 420.94 669.114 419.96C662.254 422.247 656.374 425.677 651.474 430.25C646.574 434.823 644.124 440.377 644.124 446.91C644.124 454.423 646.901 459.813 652.454 463.08C658.334 466.347 667.971 467.98 681.364 467.98H738.694C770.381 467.98 793.411 474.187 807.784 486.6C822.157 499.013 829.344 516 829.344 537.56C829.344 563.04 818.401 583.13 796.514 597.83C774.954 612.53 742.287 619.88 698.514 619.88ZM700.474 396.93C716.154 396.93 727.914 392.683 735.754 384.19C743.594 375.697 747.514 363.447 747.514 347.44V331.27C747.514 315.263 743.594 303.013 735.754 294.52C727.914 286.027 716.154 281.78 700.474 281.78C684.794 281.78 673.034 286.027 665.194 294.52C657.354 303.013 653.434 315.263 653.434 331.27V347.44C653.434 363.447 657.354 375.697 665.194 384.19C673.034 392.683 684.794 396.93 700.474 396.93ZM629.914 556.67C629.914 568.757 634.977 577.74 645.104 583.62C655.231 589.5 669.604 592.44 688.224 592.44H714.684C736.897 592.44 753.884 588.847 765.644 581.66C777.731 574.8 783.774 565 783.774 552.26C783.774 540.5 779.691 532.007 771.524 526.78C763.684 521.553 750.781 518.94 732.814 518.94H653.434C637.754 527.107 629.914 539.683 629.914 556.67Z" fill="currentColor"/>
<path d="M443.776 521.88C424.829 521.88 408.006 518.777 393.306 512.57C378.606 506.037 366.192 496.89 356.066 485.13C345.939 473.37 338.099 459.323 332.546 442.99C327.319 426.657 324.706 408.527 324.706 388.6C324.706 368.347 327.482 350.053 333.036 333.72C338.916 317.387 346.919 303.503 357.046 292.07C367.499 280.31 379.749 271.327 393.796 265.12C408.169 258.587 423.849 255.32 440.836 255.32C458.149 255.32 473.666 258.26 487.386 264.14C501.106 269.693 512.702 277.697 522.176 288.15C531.976 298.603 539.489 311.18 544.716 325.88C549.942 340.58 552.556 356.913 552.556 374.88V388.11H383.996V403.79C383.996 429.27 390.366 449.033 403.106 463.08C415.846 476.8 432.996 483.66 454.556 483.66C473.502 483.66 488.692 479.577 500.126 471.41C511.886 462.917 520.542 452.463 526.096 440.05L547.166 452.79C544.226 461.283 539.816 469.613 533.936 477.78C528.382 485.947 521.359 493.297 512.866 499.83C504.372 506.363 494.409 511.753 482.976 516C471.542 519.92 458.476 521.88 443.776 521.88ZM383.996 362.14H495.716V356.75C495.716 333.23 491.142 315.1 481.996 302.36C473.176 289.293 459.456 282.76 440.836 282.76C422.542 282.76 408.496 289.13 398.696 301.87C388.896 314.283 383.996 332.25 383.996 355.77V362.14Z" fill="currentColor"/>
<path d="M0 489.54H35.77V200.44H0V173.98H173.95C188.977 173.98 202.533 175.777 214.62 179.37C227.033 182.963 237.487 188.517 245.98 196.03C254.8 203.217 261.497 212.527 266.07 223.96C270.97 235.067 273.42 248.133 273.42 263.16C273.42 286.68 266.56 306.117 252.84 321.47C239.447 336.497 221.153 346.297 197.96 350.87L257.74 457.2C264.273 468.633 271.297 476.963 278.81 482.19C286.65 487.09 296.287 489.54 307.72 489.54H311.15V516H273.42C262.967 516 253.983 515.183 246.47 513.55C239.283 511.59 232.913 508.813 227.36 505.22C221.807 501.3 216.907 496.563 212.66 491.01C208.413 485.13 204.33 478.27 200.41 470.43L143.08 361.16H94.08V489.54H129.85V516H0V489.54ZM94.08 333.72H159.25C176.563 333.72 189.793 328.82 198.94 319.02C208.413 309.22 213.15 296.153 213.15 279.82V256.79C213.15 240.457 208.413 227.39 198.94 217.59C189.793 207.79 176.563 202.89 159.25 202.89H94.08V333.72Z" fill="currentColor"/>
</svg>
